<svg width="71" height="31" viewBox="0 0 71 31" fill="none" xmlns="http://www.w3.org/2000/svg">
<path fill-rule="evenodd" clip-rule="evenodd" d="M52.2862 0.0349961C51.4839 0.153453 50.8797 0.562446 50.5746 1.19345C50.3619 1.63323 50.3096 1.98983 50.3079 3.01182L50.3064 3.88076L55.7768 3.89227C60.8441 3.90291 61.265 3.90905 61.4901 3.97532C61.9044 4.09738 62.195 4.25976 62.4585 4.5164C62.7548 4.80493 62.9398 5.14331 63.0473 5.59316C63.1181 5.88963 63.1227 6.25331 63.1227 11.6187C63.1227 16.9406 63.1177 17.3497 63.0488 17.6374C62.8518 18.4612 62.3981 18.9627 61.6116 19.2262L61.2888 19.3344L57.9283 19.3462C55.0577 19.3563 54.5238 19.349 54.2657 19.2961C53.6944 19.1792 53.3507 18.9436 53.1304 18.5182C52.8743 18.0234 52.9358 17.4213 53.3056 16.8029C53.3978 16.6489 54.965 14.5722 56.7883 12.1881C58.6116 9.804 60.1142 7.82567 60.1275 7.79178C60.1489 7.73709 59.5964 7.73014 55.2325 7.73014H50.3134L48.1586 10.561C46.9735 12.1179 45.9202 13.5118 45.8179 13.6586C44.931 14.9308 44.9185 16.0391 45.7769 17.2878C46.0949 17.7503 48.0741 20.3163 48.4792 20.7911C49.2291 21.6702 50.0607 22.3511 50.7674 22.6647C51.4197 22.9542 52.2225 23.1252 53.2865 23.2013C54.0412 23.2553 61.2943 23.2553 62.1224 23.2013C62.4662 23.179 62.982 23.1316 63.2686 23.0962C66.1808 22.7361 68.1999 21.6334 69.507 19.6891C70.0583 18.8689 70.54 17.6663 70.7694 16.5374C70.9971 15.4164 71 15.3537 71 11.5982C71 8.4683 70.9925 8.06557 70.9248 7.58687C70.6861 5.89851 70.2255 4.62123 69.4328 3.44922C69.0158 2.83278 68.1721 2.00411 67.5447 1.59479C66.0791 0.638662 64.4382 0.181083 61.9557 0.0361428C61.1425 -0.0113383 52.6066 -0.0123622 52.2862 0.0349961ZM2.22444 7.77C1.25716 7.84106 0.602803 8.22664 0.249158 8.93386C0.0443058 9.34368 0.00154332 9.64539 0.000709742 10.6875L0 11.6187H1.95882H3.91765L3.92815 21.3093L3.93866 31H7.87731H11.816L11.8265 21.3079L11.837 11.6158L16.2028 11.6285C20.225 11.6401 20.588 11.6468 20.8155 11.7131C21.3486 11.8685 21.6711 12.1249 21.8749 12.5552C21.9662 12.748 21.9835 12.8416 21.982 13.1332C21.9798 13.5335 21.8957 13.8032 21.6468 14.2071C21.5354 14.3878 15.3074 22.5931 14.8269 23.1922C14.794 23.2331 15.7796 23.2434 19.7255 23.2434H24.6652L26.911 20.2993C28.1462 18.6801 29.2383 17.2154 29.3379 17.0444C30.0272 15.8613 29.9956 14.9479 29.2254 13.7864C28.838 13.2021 26.9012 10.6792 26.4145 10.1247C25.042 8.56089 23.9995 8.02059 21.9439 7.80758C21.4137 7.75265 2.94015 7.71741 2.22444 7.77ZM32.5564 15.4868L26.6327 23.2434H31.5666H36.5004L42.4031 15.514C45.6496 11.2628 48.3058 7.77234 48.3058 7.75736C48.3058 7.74237 46.095 7.73014 43.3929 7.73014H38.48L32.5564 15.4868Z" fill="#E21A1A"/>
</svg>
